# xmcd
#
# Track frame offsets:
#	150
#	15072
#	29857
#	46170
#	62167
#	76752
#	94470
#	111697
#	131635
#	145117
#	163722
#	177065
#
# Disc length: 2549
#
# Revision: 1
# Processed by: cddbd v1.5.1PL0 Copyright (c) Steve Scherf et al.
# Submitted via: audiograbber 1.80.04
# Normalized: r0:DSETVAR1
#
DISCID=9e09f30c
DTITLE=Various Artist - Country Connections
DYEAR=1985
DGENRE=Country
TTITLE0=Alabama - Love In The First Degree
TTITLE1=Lorrie Morgan - Out Of Your Shoes
TTITLE2=Vince Gill - Cinderella
TTITLE3=Restless Heart - That Rock Won't Roll
TTITLE4=Eddie Rabbitt - I Wanna Dance With You
TTITLE5=Michael Johnson - The Moon Is Still Over Her Shoulder
TTITLE6=Eddy Raven - Joe Knows How To Live
TTITLE7=K. T. Oslin - Hey Bobby
TTITLE8=Razzy Bailey - Loving Up A Storm
TTITLE9=Juice Newton - You Make Me Want To Make You Mine
TTITLE10=Louise Mandrell - I'm Not Through Loving You Yet
TTITLE11=Earl Thomas Conley - Holding Her And Loving You
EXTD=
EXTT0=
EXTT1=
EXTT2=
EXTT3=
EXTT4=
EXTT5=
EXTT6=
EXTT7=
EXTT8=
EXTT9=
EXTT10=
EXTT11=
PLAYORDER=
